<svg width="860" height="24" viewBox="0 0 860 24" fill="none" xmlns="http://www.w3.org/2000/svg">
<path opacity="0.6" d="M43.502 19H42.0342V10.5449C42.0342 9.87695 42.0752 9.05957 42.1572 8.09277H42.1221C41.9814 8.66113 41.8555 9.06836 41.7441 9.31445L37.4375 19H36.7168L32.4189 9.38477C32.2959 9.10352 32.1699 8.67285 32.041 8.09277H32.0059C32.0527 8.59668 32.0762 9.41992 32.0762 10.5625V19H30.6523V6.39648H32.6035L36.4707 15.1855C36.7695 15.8594 36.9629 16.3633 37.0508 16.6973H37.1035C37.3555 16.0059 37.5576 15.4902 37.71 15.1504L41.6562 6.39648H43.502V19ZM53.0732 19H51.6318V17.5938H51.5967C50.9697 18.6719 50.0469 19.2109 48.8281 19.2109C47.9316 19.2109 47.2285 18.9736 46.7188 18.499C46.2148 18.0244 45.9629 17.3945 45.9629 16.6094C45.9629 14.9277 46.9531 13.9492 48.9336 13.6738L51.6318 13.2959C51.6318 11.7666 51.0137 11.002 49.7773 11.002C48.6934 11.002 47.7148 11.3711 46.8418 12.1094V10.6328C47.7266 10.0703 48.7461 9.78906 49.9004 9.78906C52.0156 9.78906 53.0732 10.9082 53.0732 13.1465V19ZM51.6318 14.4473L49.4609 14.7461C48.793 14.8398 48.2891 15.0068 47.9492 15.2471C47.6094 15.4814 47.4395 15.9004 47.4395 16.5039C47.4395 16.9434 47.5947 17.3037 47.9053 17.585C48.2217 17.8604 48.6406 17.998 49.1621 17.998C49.877 17.998 50.4658 17.749 50.9287 17.251C51.3975 16.7471 51.6318 16.1113 51.6318 15.3438V14.4473ZM55.2441 18.6748V17.1279C56.0293 17.708 56.8936 17.998 57.8369 17.998C59.1025 17.998 59.7354 17.5762 59.7354 16.7324C59.7354 16.4922 59.6797 16.29 59.5684 16.126C59.4629 15.9561 59.3164 15.8066 59.1289 15.6777C58.9473 15.5488 58.7305 15.4346 58.4785 15.335C58.2324 15.2295 57.9658 15.1211 57.6787 15.0098C57.2803 14.8516 56.9287 14.6934 56.624 14.5352C56.3252 14.3711 56.0732 14.1895 55.8682 13.9902C55.6689 13.7852 55.5166 13.5537 55.4111 13.2959C55.3115 13.0381 55.2617 12.7363 55.2617 12.3906C55.2617 11.9688 55.3584 11.5967 55.5518 11.2744C55.7451 10.9463 56.0029 10.6738 56.3252 10.457C56.6475 10.2344 57.0137 10.0674 57.4238 9.95605C57.8398 9.84473 58.2676 9.78906 58.707 9.78906C59.4863 9.78906 60.1836 9.92383 60.7988 10.1934V11.6523C60.1367 11.2188 59.375 11.002 58.5137 11.002C58.2441 11.002 58.001 11.0342 57.7842 11.0986C57.5674 11.1572 57.3799 11.2422 57.2217 11.3535C57.0693 11.4648 56.9492 11.5996 56.8613 11.7578C56.7793 11.9102 56.7383 12.0801 56.7383 12.2676C56.7383 12.502 56.7793 12.6982 56.8613 12.8564C56.9492 13.0146 57.0752 13.1553 57.2393 13.2783C57.4033 13.4014 57.6025 13.5127 57.8369 13.6123C58.0713 13.7119 58.3379 13.8203 58.6367 13.9375C59.0352 14.0898 59.3926 14.248 59.709 14.4121C60.0254 14.5703 60.2949 14.752 60.5176 14.957C60.7402 15.1562 60.9102 15.3877 61.0273 15.6514C61.1504 15.915 61.2119 16.2285 61.2119 16.5918C61.2119 17.0371 61.1123 17.4238 60.9131 17.752C60.7197 18.0801 60.459 18.3525 60.1309 18.5693C59.8027 18.7861 59.4248 18.9473 58.9971 19.0527C58.5693 19.1582 58.1211 19.2109 57.6523 19.2109C56.7266 19.2109 55.9238 19.0322 55.2441 18.6748ZM70.9062 19H69.4648V13.8145C69.4648 11.9395 68.7676 11.002 67.373 11.002C66.6699 11.002 66.0781 11.2744 65.5977 11.8193C65.1172 12.3584 64.877 13.0527 64.877 13.9023V19H63.4355V5.67578H64.877V11.4941H64.9121C65.6035 10.3574 66.5879 9.78906 67.8652 9.78906C69.8926 9.78906 70.9062 11.0107 70.9062 13.4541V19ZM80.0732 19H78.6318V17.5938H78.5967C77.9697 18.6719 77.0469 19.2109 75.8281 19.2109C74.9316 19.2109 74.2285 18.9736 73.7188 18.499C73.2148 18.0244 72.9629 17.3945 72.9629 16.6094C72.9629 14.9277 73.9531 13.9492 75.9336 13.6738L78.6318 13.2959C78.6318 11.7666 78.0137 11.002 76.7773 11.002C75.6934 11.002 74.7148 11.3711 73.8418 12.1094V10.6328C74.7266 10.0703 75.7461 9.78906 76.9004 9.78906C79.0156 9.78906 80.0732 10.9082 80.0732 13.1465V19ZM78.6318 14.4473L76.4609 14.7461C75.793 14.8398 75.2891 15.0068 74.9492 15.2471C74.6094 15.4814 74.4395 15.9004 74.4395 16.5039C74.4395 16.9434 74.5947 17.3037 74.9053 17.585C75.2217 17.8604 75.6406 17.998 76.1621 17.998C76.877 17.998 77.4658 17.749 77.9287 17.251C78.3975 16.7471 78.6318 16.1113 78.6318 15.3438V14.4473ZM90.4707 18.2793C90.4707 21.584 88.8887 23.2363 85.7246 23.2363C84.6113 23.2363 83.6387 23.0254 82.8066 22.6035V21.1621C83.8203 21.7246 84.7871 22.0059 85.707 22.0059C87.9219 22.0059 89.0293 20.8281 89.0293 18.4727V17.4883H88.9941C88.3086 18.6367 87.2773 19.2109 85.9004 19.2109C84.7812 19.2109 83.8789 18.8125 83.1934 18.0156C82.5137 17.2129 82.1738 16.1377 82.1738 14.79C82.1738 13.2607 82.54 12.0449 83.2725 11.1426C84.0107 10.2402 85.0186 9.78906 86.2959 9.78906C87.5088 9.78906 88.4082 10.2754 88.9941 11.248H89.0293V10H90.4707V18.2793ZM89.0293 14.9307V13.6035C89.0293 12.8887 88.7861 12.2764 88.2998 11.7666C87.8193 11.2568 87.2188 11.002 86.498 11.002C85.6074 11.002 84.9102 11.3271 84.4062 11.9775C83.9023 12.6221 83.6504 13.5273 83.6504 14.6934C83.6504 15.6953 83.8906 16.498 84.3711 17.1016C84.8574 17.6992 85.499 17.998 86.2959 17.998C87.1045 17.998 87.7607 17.7109 88.2646 17.1367C88.7744 16.5625 89.0293 15.8271 89.0293 14.9307ZM95.1641 6.18555L93.9336 10.1055H92.8965L93.8721 6.18555H95.1641ZM105.201 19H103.76V17.4707H103.725C103.057 18.6309 102.025 19.2109 100.631 19.2109C99.5 19.2109 98.5947 18.8096 97.915 18.0068C97.2412 17.1982 96.9043 16.0996 96.9043 14.7109C96.9043 13.2227 97.2793 12.0303 98.0293 11.1338C98.7793 10.2373 99.7783 9.78906 101.026 9.78906C102.263 9.78906 103.162 10.2754 103.725 11.248H103.76V5.67578H105.201V19ZM103.76 14.9307V13.6035C103.76 12.877 103.52 12.2617 103.039 11.7578C102.559 11.2539 101.949 11.002 101.211 11.002C100.332 11.002 99.6406 11.3242 99.1367 11.9688C98.6328 12.6133 98.3809 13.5039 98.3809 14.6406C98.3809 15.6777 98.6211 16.498 99.1016 17.1016C99.5879 17.6992 100.238 17.998 101.053 17.998C101.855 17.998 102.506 17.708 103.004 17.1279C103.508 16.5479 103.76 15.8154 103.76 14.9307ZM114.562 19H113.12V17.5938H113.085C112.458 18.6719 111.535 19.2109 110.316 19.2109C109.42 19.2109 108.717 18.9736 108.207 18.499C107.703 18.0244 107.451 17.3945 107.451 16.6094C107.451 14.9277 108.441 13.9492 110.422 13.6738L113.12 13.2959C113.12 11.7666 112.502 11.002 111.266 11.002C110.182 11.002 109.203 11.3711 108.33 12.1094V10.6328C109.215 10.0703 110.234 9.78906 111.389 9.78906C113.504 9.78906 114.562 10.9082 114.562 13.1465V19ZM113.12 14.4473L110.949 14.7461C110.281 14.8398 109.777 15.0068 109.438 15.2471C109.098 15.4814 108.928 15.9004 108.928 16.5039C108.928 16.9434 109.083 17.3037 109.394 17.585C109.71 17.8604 110.129 17.998 110.65 17.998C111.365 17.998 111.954 17.749 112.417 17.251C112.886 16.7471 113.12 16.1113 113.12 15.3438V14.4473ZM130.057 19H128.615V13.832C128.615 12.8359 128.46 12.1152 128.149 11.6699C127.845 11.2246 127.329 11.002 126.603 11.002C125.987 11.002 125.463 11.2832 125.029 11.8457C124.602 12.4082 124.388 13.082 124.388 13.8672V19H122.946V13.6562C122.946 11.8867 122.264 11.002 120.898 11.002C120.266 11.002 119.744 11.2686 119.334 11.8018C118.924 12.3291 118.719 13.0176 118.719 13.8672V19H117.277V10H118.719V11.4238H118.754C119.393 10.334 120.324 9.78906 121.549 9.78906C122.164 9.78906 122.7 9.96191 123.157 10.3076C123.614 10.6475 123.928 11.0957 124.098 11.6523C124.766 10.4102 125.762 9.78906 127.086 9.78906C129.066 9.78906 130.057 11.0107 130.057 13.4541V19ZM139.224 19H137.782V17.5938H137.747C137.12 18.6719 136.197 19.2109 134.979 19.2109C134.082 19.2109 133.379 18.9736 132.869 18.499C132.365 18.0244 132.113 17.3945 132.113 16.6094C132.113 14.9277 133.104 13.9492 135.084 13.6738L137.782 13.2959C137.782 11.7666 137.164 11.002 135.928 11.002C134.844 11.002 133.865 11.3711 132.992 12.1094V10.6328C133.877 10.0703 134.896 9.78906 136.051 9.78906C138.166 9.78906 139.224 10.9082 139.224 13.1465V19ZM137.782 14.4473L135.611 14.7461C134.943 14.8398 134.439 15.0068 134.1 15.2471C133.76 15.4814 133.59 15.9004 133.59 16.5039C133.59 16.9434 133.745 17.3037 134.056 17.585C134.372 17.8604 134.791 17.998 135.312 17.998C136.027 17.998 136.616 17.749 137.079 17.251C137.548 16.7471 137.782 16.1113 137.782 15.3438V14.4473ZM149.41 19H147.969V13.8672C147.969 11.957 147.271 11.002 145.877 11.002C145.156 11.002 144.559 11.2744 144.084 11.8193C143.615 12.3584 143.381 13.041 143.381 13.8672V19H141.939V10H143.381V11.4941H143.416C144.096 10.3574 145.08 9.78906 146.369 9.78906C147.354 9.78906 148.106 10.1084 148.628 10.7471C149.149 11.3799 149.41 12.2969 149.41 13.498V19Z" fill="black"/>
<g opacity="0.6">
<path d="M12 14.315C9.912 14.315 8.213 12.617 8.213 10.529C8.213 8.44099 9.913 6.73999 12 6.73999C14.087 6.73999 15.787 8.43999 15.787 10.527C15.787 12.614 14.087 14.312 12 14.312V14.315ZM12 8.24199C10.74 8.24199 9.713 9.26799 9.713 10.529C9.713 11.79 10.74 12.814 12 12.814C13.26 12.814 14.287 11.789 14.287 10.528C14.287 9.26699 13.26 8.23999 12 8.23999V8.24199Z" fill="black"/>
<path d="M20.692 10.69C20.692 5.9 16.792 2 12 2C7.208 2 3.308 5.9 3.308 10.69C3.308 12.592 3.911 14.398 5.051 15.913L5.054 15.911L5.061 15.926C6.689 17.996 11.339 21.683 11.536 21.838C11.674 21.948 11.838 22.001 12.001 22.001C12.164 22.001 12.328 21.948 12.466 21.839C12.663 21.684 17.313 17.999 18.941 15.927L18.948 15.913L18.95 15.915C20.09 14.399 20.692 12.595 20.692 10.692V10.69ZM12 20.29C10.776 19.3 7.48 16.575 6.244 15.005C5.304 13.755 4.808 12.263 4.808 10.693C4.808 6.727 8.035 3.5 12 3.5C15.965 3.5 19.192 6.726 19.192 10.69C19.192 12.26 18.695 13.752 17.756 15.003C16.52 16.573 13.224 19.297 12 20.288V20.29Z" fill="black"/>
</g>
<path opacity="0.6" d="M469.652 19V6.39648H473.238C474.328 6.39648 475.192 6.66309 475.831 7.19629C476.47 7.72949 476.789 8.42383 476.789 9.2793C476.789 9.99414 476.596 10.6152 476.209 11.1426C475.822 11.6699 475.289 12.0449 474.609 12.2676V12.3027C475.459 12.4023 476.139 12.7246 476.648 13.2695C477.158 13.8086 477.413 14.5117 477.413 15.3789C477.413 16.457 477.026 17.3301 476.253 17.998C475.479 18.666 474.504 19 473.326 19H469.652ZM471.129 7.73242V11.8018H472.641C473.449 11.8018 474.085 11.6084 474.548 11.2217C475.011 10.8291 475.242 10.2783 475.242 9.56934C475.242 8.34473 474.437 7.73242 472.825 7.73242H471.129ZM471.129 13.1289V17.6641H473.133C474 17.6641 474.671 17.459 475.146 17.0488C475.626 16.6387 475.866 16.0762 475.866 15.3613C475.866 13.873 474.853 13.1289 472.825 13.1289H471.129ZM483.539 19.2109C482.209 19.2109 481.146 18.792 480.349 17.9541C479.558 17.1104 479.162 15.9941 479.162 14.6055C479.162 13.0938 479.575 11.9131 480.401 11.0635C481.228 10.2139 482.344 9.78906 483.75 9.78906C485.092 9.78906 486.138 10.2021 486.888 11.0283C487.644 11.8545 488.021 13 488.021 14.4648C488.021 15.9004 487.614 17.0518 486.8 17.9189C485.991 18.7803 484.904 19.2109 483.539 19.2109ZM483.645 11.002C482.719 11.002 481.986 11.3184 481.447 11.9512C480.908 12.5781 480.639 13.4453 480.639 14.5527C480.639 15.6191 480.911 16.46 481.456 17.0752C482.001 17.6904 482.73 17.998 483.645 17.998C484.576 17.998 485.291 17.6963 485.789 17.0928C486.293 16.4893 486.545 15.6309 486.545 14.5176C486.545 13.3926 486.293 12.5254 485.789 11.916C485.291 11.3066 484.576 11.002 483.645 11.002ZM495.018 11.459C494.766 11.2656 494.402 11.1689 493.928 11.1689C493.312 11.1689 492.797 11.459 492.381 12.0391C491.971 12.6191 491.766 13.4102 491.766 14.4121V19H490.324V10H491.766V11.8545H491.801C492.006 11.2217 492.319 10.7295 492.741 10.3779C493.163 10.0205 493.635 9.8418 494.156 9.8418C494.531 9.8418 494.818 9.88281 495.018 9.96484V11.459ZM504.053 19H502.611V13.8672C502.611 11.957 501.914 11.002 500.52 11.002C499.799 11.002 499.201 11.2744 498.727 11.8193C498.258 12.3584 498.023 13.041 498.023 13.8672V19H496.582V10H498.023V11.4941H498.059C498.738 10.3574 499.723 9.78906 501.012 9.78906C501.996 9.78906 502.749 10.1084 503.271 10.7471C503.792 11.3799 504.053 12.2969 504.053 13.498V19ZM522.07 19H520.26L513.773 8.9541C513.609 8.70215 513.475 8.43848 513.369 8.16309H513.316C513.363 8.43262 513.387 9.00977 513.387 9.89453V19H511.91V6.39648H513.826L520.137 16.2842C520.4 16.6943 520.57 16.9756 520.646 17.1279H520.682C520.623 16.7646 520.594 16.1465 520.594 15.2734V6.39648H522.07V19ZM528.943 19.2109C527.613 19.2109 526.55 18.792 525.753 17.9541C524.962 17.1104 524.566 15.9941 524.566 14.6055C524.566 13.0938 524.979 11.9131 525.806 11.0635C526.632 10.2139 527.748 9.78906 529.154 9.78906C530.496 9.78906 531.542 10.2021 532.292 11.0283C533.048 11.8545 533.426 13 533.426 14.4648C533.426 15.9004 533.019 17.0518 532.204 17.9189C531.396 18.7803 530.309 19.2109 528.943 19.2109ZM529.049 11.002C528.123 11.002 527.391 11.3184 526.852 11.9512C526.312 12.5781 526.043 13.4453 526.043 14.5527C526.043 15.6191 526.315 16.46 526.86 17.0752C527.405 17.6904 528.135 17.998 529.049 17.998C529.98 17.998 530.695 17.6963 531.193 17.0928C531.697 16.4893 531.949 15.6309 531.949 14.5176C531.949 13.3926 531.697 12.5254 531.193 11.916C530.695 11.3066 529.98 11.002 529.049 11.002ZM542.804 10L539.218 19H537.803L534.393 10H535.975L538.26 16.5391C538.43 17.0195 538.535 17.4385 538.576 17.7959H538.611C538.67 17.3447 538.764 16.9375 538.893 16.5742L541.283 10H542.804ZM551.593 14.8604H545.238C545.262 15.8623 545.531 16.6357 546.047 17.1807C546.562 17.7256 547.271 17.998 548.174 17.998C549.188 17.998 550.119 17.6641 550.969 16.9961V18.3496C550.178 18.9238 549.132 19.2109 547.831 19.2109C546.56 19.2109 545.561 18.8037 544.834 17.9893C544.107 17.1689 543.744 16.0176 543.744 14.5352C543.744 13.1348 544.14 11.9951 544.931 11.1162C545.728 10.2314 546.715 9.78906 547.893 9.78906C549.07 9.78906 549.981 10.1699 550.626 10.9316C551.271 11.6934 551.593 12.751 551.593 14.1045V14.8604ZM550.116 13.6387C550.11 12.8066 549.908 12.1592 549.51 11.6963C549.117 11.2334 548.569 11.002 547.866 11.002C547.187 11.002 546.609 11.2451 546.135 11.7314C545.66 12.2178 545.367 12.8535 545.256 13.6387H550.116ZM566.561 19H565.119V13.832C565.119 12.8359 564.964 12.1152 564.653 11.6699C564.349 11.2246 563.833 11.002 563.106 11.002C562.491 11.002 561.967 11.2832 561.533 11.8457C561.105 12.4082 560.892 13.082 560.892 13.8672V19H559.45V13.6562C559.45 11.8867 558.768 11.002 557.402 11.002C556.77 11.002 556.248 11.2686 555.838 11.8018C555.428 12.3291 555.223 13.0176 555.223 13.8672V19H553.781V10H555.223V11.4238H555.258C555.896 10.334 556.828 9.78906 558.053 9.78906C558.668 9.78906 559.204 9.96191 559.661 10.3076C560.118 10.6475 560.432 11.0957 560.602 11.6523C561.27 10.4102 562.266 9.78906 563.59 9.78906C565.57 9.78906 566.561 11.0107 566.561 13.4541V19ZM570.762 17.6992H570.727V19H569.285V5.67578H570.727V11.582H570.762C571.471 10.3867 572.508 9.78906 573.873 9.78906C575.027 9.78906 575.93 10.1934 576.58 11.002C577.236 11.8047 577.564 12.8828 577.564 14.2363C577.564 15.7422 577.198 16.9492 576.466 17.8574C575.733 18.7598 574.731 19.2109 573.46 19.2109C572.271 19.2109 571.371 18.707 570.762 17.6992ZM570.727 14.0693V15.3262C570.727 16.0703 570.967 16.7031 571.447 17.2246C571.934 17.7402 572.549 17.998 573.293 17.998C574.166 17.998 574.849 17.6641 575.341 16.9961C575.839 16.3281 576.088 15.3994 576.088 14.21C576.088 13.208 575.856 12.4229 575.394 11.8545C574.931 11.2861 574.304 11.002 573.513 11.002C572.675 11.002 572.001 11.2949 571.491 11.8809C570.981 12.4609 570.727 13.1904 570.727 14.0693ZM587.101 14.8604H580.746C580.77 15.8623 581.039 16.6357 581.555 17.1807C582.07 17.7256 582.779 17.998 583.682 17.998C584.695 17.998 585.627 17.6641 586.477 16.9961V18.3496C585.686 18.9238 584.64 19.2109 583.339 19.2109C582.067 19.2109 581.068 18.8037 580.342 17.9893C579.615 17.1689 579.252 16.0176 579.252 14.5352C579.252 13.1348 579.647 11.9951 580.438 11.1162C581.235 10.2314 582.223 9.78906 583.4 9.78906C584.578 9.78906 585.489 10.1699 586.134 10.9316C586.778 11.6934 587.101 12.751 587.101 14.1045V14.8604ZM585.624 13.6387C585.618 12.8066 585.416 12.1592 585.018 11.6963C584.625 11.2334 584.077 11.002 583.374 11.002C582.694 11.002 582.117 11.2451 581.643 11.7314C581.168 12.2178 580.875 12.8535 580.764 13.6387H585.624ZM593.982 11.459C593.73 11.2656 593.367 11.1689 592.893 11.1689C592.277 11.1689 591.762 11.459 591.346 12.0391C590.936 12.6191 590.73 13.4102 590.73 14.4121V19H589.289V10H590.73V11.8545H590.766C590.971 11.2217 591.284 10.7295 591.706 10.3779C592.128 10.0205 592.6 9.8418 593.121 9.8418C593.496 9.8418 593.783 9.88281 593.982 9.96484V11.459ZM605.812 9.70117C605.812 9.31445 605.751 8.97754 605.628 8.69043C605.511 8.40332 605.347 8.16602 605.136 7.97852C604.931 7.78516 604.688 7.6416 604.406 7.54785C604.125 7.4541 603.82 7.40723 603.492 7.40723C603.211 7.40723 602.936 7.44531 602.666 7.52148C602.396 7.59766 602.133 7.70313 601.875 7.83789C601.623 7.97266 601.377 8.13379 601.137 8.32129C600.902 8.50879 600.683 8.7168 600.478 8.94531V7.39844C600.882 7.00586 601.333 6.70703 601.831 6.50195C602.335 6.29102 602.947 6.18555 603.668 6.18555C604.184 6.18555 604.661 6.26172 605.101 6.41406C605.54 6.56055 605.921 6.77734 606.243 7.06445C606.565 7.35156 606.817 7.70605 606.999 8.12793C607.187 8.5498 607.28 9.0332 607.28 9.57812C607.28 10.0762 607.222 10.5273 607.104 10.9316C606.993 11.3359 606.82 11.7168 606.586 12.0742C606.357 12.4316 606.067 12.7744 605.716 13.1025C605.364 13.4307 604.951 13.7646 604.477 14.1045C603.885 14.5264 603.396 14.8867 603.009 15.1855C602.628 15.4844 602.323 15.7656 602.095 16.0293C601.872 16.2871 601.714 16.5479 601.62 16.8115C601.532 17.0693 601.488 17.3682 601.488 17.708H607.764V19H599.985V18.376C599.985 17.8369 600.044 17.3623 600.161 16.9521C600.278 16.542 600.472 16.1523 600.741 15.7832C601.011 15.4141 601.362 15.0449 601.796 14.6758C602.235 14.3066 602.771 13.8906 603.404 13.4277C603.861 13.0996 604.242 12.7861 604.547 12.4873C604.857 12.1885 605.106 11.8896 605.294 11.5908C605.481 11.292 605.613 10.9902 605.689 10.6855C605.771 10.375 605.812 10.0469 605.812 9.70117ZM616.201 6.39648V14.7197H617.818V16.0381H616.201V19H614.777V16.0381H608.854V14.79C609.404 14.1689 609.961 13.5068 610.523 12.8037C611.086 12.0947 611.622 11.377 612.132 10.6504C612.647 9.92383 613.122 9.2002 613.556 8.47949C613.995 7.75293 614.364 7.05859 614.663 6.39648H616.201ZM610.479 14.7197H614.777V8.5498C614.338 9.31738 613.922 10.0029 613.529 10.6064C613.137 11.21 612.762 11.7578 612.404 12.25C612.053 12.7422 611.716 13.1875 611.394 13.5859C611.071 13.9844 610.767 14.3623 610.479 14.7197ZM621.211 16.9961L619.805 21.3203H618.776L619.805 16.9961H621.211ZM634.061 9.70117C634.061 9.31445 633.999 8.97754 633.876 8.69043C633.759 8.40332 633.595 8.16602 633.384 7.97852C633.179 7.78516 632.936 7.6416 632.654 7.54785C632.373 7.4541 632.068 7.40723 631.74 7.40723C631.459 7.40723 631.184 7.44531 630.914 7.52148C630.645 7.59766 630.381 7.70313 630.123 7.83789C629.871 7.97266 629.625 8.13379 629.385 8.32129C629.15 8.50879 628.931 8.7168 628.726 8.94531V7.39844C629.13 7.00586 629.581 6.70703 630.079 6.50195C630.583 6.29102 631.195 6.18555 631.916 6.18555C632.432 6.18555 632.909 6.26172 633.349 6.41406C633.788 6.56055 634.169 6.77734 634.491 7.06445C634.813 7.35156 635.065 7.70605 635.247 8.12793C635.435 8.5498 635.528 9.0332 635.528 9.57812C635.528 10.0762 635.47 10.5273 635.353 10.9316C635.241 11.3359 635.068 11.7168 634.834 12.0742C634.605 12.4316 634.315 12.7744 633.964 13.1025C633.612 13.4307 633.199 13.7646 632.725 14.1045C632.133 14.5264 631.644 14.8867 631.257 15.1855C630.876 15.4844 630.571 15.7656 630.343 16.0293C630.12 16.2871 629.962 16.5479 629.868 16.8115C629.78 17.0693 629.736 17.3682 629.736 17.708H636.012V19H628.233V18.376C628.233 17.8369 628.292 17.3623 628.409 16.9521C628.526 16.542 628.72 16.1523 628.989 15.7832C629.259 15.4141 629.61 15.0449 630.044 14.6758C630.483 14.3066 631.02 13.8906 631.652 13.4277C632.109 13.0996 632.49 12.7861 632.795 12.4873C633.105 12.1885 633.354 11.8896 633.542 11.5908C633.729 11.292 633.861 10.9902 633.938 10.6855C634.02 10.375 634.061 10.0469 634.061 9.70117ZM645.943 12.6455C645.943 13.7002 645.847 14.6348 645.653 15.4492C645.466 16.2637 645.19 16.9521 644.827 17.5146C644.47 18.0713 644.027 18.4961 643.5 18.7891C642.979 19.0762 642.384 19.2197 641.716 19.2197C641.083 19.2197 640.518 19.082 640.02 18.8066C639.527 18.5254 639.111 18.1182 638.771 17.585C638.432 17.0518 638.174 16.3984 637.998 15.625C637.822 14.8457 637.734 13.9551 637.734 12.9531C637.734 11.8516 637.825 10.8789 638.007 10.0352C638.194 9.19141 638.467 8.48535 638.824 7.91699C639.182 7.34277 639.624 6.91211 640.151 6.625C640.685 6.33203 641.294 6.18555 641.979 6.18555C644.622 6.18555 645.943 8.33887 645.943 12.6455ZM644.467 12.7861C644.467 9.2002 643.614 7.40723 641.909 7.40723C640.11 7.40723 639.211 9.23242 639.211 12.8828C639.211 16.2871 640.093 17.9893 641.856 17.9893C643.597 17.9893 644.467 16.2549 644.467 12.7861ZM655.646 12.6455C655.646 13.7002 655.55 14.6348 655.356 15.4492C655.169 16.2637 654.894 16.9521 654.53 17.5146C654.173 18.0713 653.73 18.4961 653.203 18.7891C652.682 19.0762 652.087 19.2197 651.419 19.2197C650.786 19.2197 650.221 19.082 649.723 18.8066C649.23 18.5254 648.814 18.1182 648.475 17.585C648.135 17.0518 647.877 16.3984 647.701 15.625C647.525 14.8457 647.438 13.9551 647.438 12.9531C647.438 11.8516 647.528 10.8789 647.71 10.0352C647.897 9.19141 648.17 8.48535 648.527 7.91699C648.885 7.34277 649.327 6.91211 649.854 6.625C650.388 6.33203 650.997 6.18555 651.683 6.18555C654.325 6.18555 655.646 8.33887 655.646 12.6455ZM654.17 12.7861C654.17 9.2002 653.317 7.40723 651.612 7.40723C649.813 7.40723 648.914 9.23242 648.914 12.8828C648.914 16.2871 649.796 17.9893 651.56 17.9893C653.3 17.9893 654.17 16.2549 654.17 12.7861ZM665.35 12.6455C665.35 13.7002 665.253 14.6348 665.06 15.4492C664.872 16.2637 664.597 16.9521 664.233 17.5146C663.876 18.0713 663.434 18.4961 662.906 18.7891C662.385 19.0762 661.79 19.2197 661.122 19.2197C660.489 19.2197 659.924 19.082 659.426 18.8066C658.934 18.5254 658.518 18.1182 658.178 17.585C657.838 17.0518 657.58 16.3984 657.404 15.625C657.229 14.8457 657.141 13.9551 657.141 12.9531C657.141 11.8516 657.231 10.8789 657.413 10.0352C657.601 9.19141 657.873 8.48535 658.23 7.91699C658.588 7.34277 659.03 6.91211 659.558 6.625C660.091 6.33203 660.7 6.18555 661.386 6.18555C664.028 6.18555 665.35 8.33887 665.35 12.6455ZM663.873 12.7861C663.873 9.2002 663.021 7.40723 661.315 7.40723C659.517 7.40723 658.617 9.23242 658.617 12.8828C658.617 16.2871 659.499 17.9893 661.263 17.9893C663.003 17.9893 663.873 16.2549 663.873 12.7861Z" fill="black"/>
<path d="M446.75 11.083C446.336 11.083 446 10.747 446 10.333C446 7.393 448.243 5 451 5C451.414 5 451.75 5.336 451.75 5.75C451.75 6.164 451.414 6.5 451 6.5C449.07 6.5 447.5 8.22 447.5 10.333C447.5 10.747 447.164 11.083 446.75 11.083Z" fill="black"/>
<path d="M459.75 10.333C459.75 5.323 455.825 1.25 451 1.25C446.175 1.25 442.25 5.324 442.25 10.333C442.25 14.938 445.57 18.745 449.855 19.33L448.155 21.16C448.018 21.305 447.982 21.517 448.062 21.7C448.142 21.882 448.322 22 448.522 22H453.479C453.677 22 453.857 21.882 453.936 21.7C454.016 21.517 453.98 21.305 453.844 21.16L452.144 19.33C456.429 18.745 459.749 14.938 459.749 10.333H459.75ZM451 17.917C447.002 17.917 443.75 14.515 443.75 10.333C443.75 6.151 447.002 2.75 451 2.75C454.998 2.75 458.25 6.15 458.25 10.333C458.25 14.516 454.998 17.917 451 17.917Z" fill="black"/>
<path opacity="0.6" d="M729.878 14.4824C729.878 15.9766 729.562 17.1396 728.929 17.9717C728.296 18.7979 727.449 19.2109 726.389 19.2109C725.896 19.2109 725.492 19.1406 725.176 19V17.541C725.492 17.7695 725.902 17.8838 726.406 17.8838C727.736 17.8838 728.401 16.7559 728.401 14.5V6.39648H729.878V14.4824ZM736.654 19.2109C735.324 19.2109 734.261 18.792 733.464 17.9541C732.673 17.1104 732.277 15.9941 732.277 14.6055C732.277 13.0938 732.69 11.9131 733.517 11.0635C734.343 10.2139 735.459 9.78906 736.865 9.78906C738.207 9.78906 739.253 10.2021 740.003 11.0283C740.759 11.8545 741.137 13 741.137 14.4648C741.137 15.9004 740.729 17.0518 739.915 17.9189C739.106 18.7803 738.02 19.2109 736.654 19.2109ZM736.76 11.002C735.834 11.002 735.102 11.3184 734.562 11.9512C734.023 12.5781 733.754 13.4453 733.754 14.5527C733.754 15.6191 734.026 16.46 734.571 17.0752C735.116 17.6904 735.846 17.998 736.76 17.998C737.691 17.998 738.406 17.6963 738.904 17.0928C739.408 16.4893 739.66 15.6309 739.66 14.5176C739.66 13.3926 739.408 12.5254 738.904 11.916C738.406 11.3066 737.691 11.002 736.76 11.002ZM744.178 7.71484C743.92 7.71484 743.7 7.62695 743.519 7.45117C743.337 7.27539 743.246 7.05273 743.246 6.7832C743.246 6.51367 743.337 6.29102 743.519 6.11523C743.7 5.93359 743.92 5.84277 744.178 5.84277C744.441 5.84277 744.664 5.93359 744.846 6.11523C745.033 6.29102 745.127 6.51367 745.127 6.7832C745.127 7.04102 745.033 7.26074 744.846 7.44238C744.664 7.62402 744.441 7.71484 744.178 7.71484ZM744.881 19H743.439V10H744.881V19ZM755.27 19H753.828V13.8672C753.828 11.957 753.131 11.002 751.736 11.002C751.016 11.002 750.418 11.2744 749.943 11.8193C749.475 12.3584 749.24 13.041 749.24 13.8672V19H747.799V10H749.24V11.4941H749.275C749.955 10.3574 750.939 9.78906 752.229 9.78906C753.213 9.78906 753.966 10.1084 754.487 10.7471C755.009 11.3799 755.27 12.2969 755.27 13.498V19ZM765.228 14.8604H758.873C758.896 15.8623 759.166 16.6357 759.682 17.1807C760.197 17.7256 760.906 17.998 761.809 17.998C762.822 17.998 763.754 17.6641 764.604 16.9961V18.3496C763.812 18.9238 762.767 19.2109 761.466 19.2109C760.194 19.2109 759.195 18.8037 758.469 17.9893C757.742 17.1689 757.379 16.0176 757.379 14.5352C757.379 13.1348 757.774 11.9951 758.565 11.1162C759.362 10.2314 760.35 9.78906 761.527 9.78906C762.705 9.78906 763.616 10.1699 764.261 10.9316C764.905 11.6934 765.228 12.751 765.228 14.1045V14.8604ZM763.751 13.6387C763.745 12.8066 763.543 12.1592 763.145 11.6963C762.752 11.2334 762.204 11.002 761.501 11.002C760.821 11.002 760.244 11.2451 759.77 11.7314C759.295 12.2178 759.002 12.8535 758.891 13.6387H763.751ZM775.098 19H773.656V17.4707H773.621C772.953 18.6309 771.922 19.2109 770.527 19.2109C769.396 19.2109 768.491 18.8096 767.812 18.0068C767.138 17.1982 766.801 16.0996 766.801 14.7109C766.801 13.2227 767.176 12.0303 767.926 11.1338C768.676 10.2373 769.675 9.78906 770.923 9.78906C772.159 9.78906 773.059 10.2754 773.621 11.248H773.656V5.67578H775.098V19ZM773.656 14.9307V13.6035C773.656 12.877 773.416 12.2617 772.936 11.7578C772.455 11.2539 771.846 11.002 771.107 11.002C770.229 11.002 769.537 11.3242 769.033 11.9688C768.529 12.6133 768.277 13.5039 768.277 14.6406C768.277 15.6777 768.518 16.498 768.998 17.1016C769.484 17.6992 770.135 17.998 770.949 17.998C771.752 17.998 772.402 17.708 772.9 17.1279C773.404 16.5479 773.656 15.8154 773.656 14.9307ZM795.998 19H794.53V10.5449C794.53 9.87695 794.571 9.05957 794.653 8.09277H794.618C794.478 8.66113 794.352 9.06836 794.24 9.31445L789.934 19H789.213L784.915 9.38477C784.792 9.10352 784.666 8.67285 784.537 8.09277H784.502C784.549 8.59668 784.572 9.41992 784.572 10.5625V19H783.148V6.39648H785.1L788.967 15.1855C789.266 15.8594 789.459 16.3633 789.547 16.6973H789.6C789.852 16.0059 790.054 15.4902 790.206 15.1504L794.152 6.39648H795.998V19ZM805.569 19H804.128V17.5938H804.093C803.466 18.6719 802.543 19.2109 801.324 19.2109C800.428 19.2109 799.725 18.9736 799.215 18.499C798.711 18.0244 798.459 17.3945 798.459 16.6094C798.459 14.9277 799.449 13.9492 801.43 13.6738L804.128 13.2959C804.128 11.7666 803.51 11.002 802.273 11.002C801.189 11.002 800.211 11.3711 799.338 12.1094V10.6328C800.223 10.0703 801.242 9.78906 802.396 9.78906C804.512 9.78906 805.569 10.9082 805.569 13.1465V19ZM804.128 14.4473L801.957 14.7461C801.289 14.8398 800.785 15.0068 800.445 15.2471C800.105 15.4814 799.936 15.9004 799.936 16.5039C799.936 16.9434 800.091 17.3037 800.401 17.585C800.718 17.8604 801.137 17.998 801.658 17.998C802.373 17.998 802.962 17.749 803.425 17.251C803.894 16.7471 804.128 16.1113 804.128 15.3438V14.4473ZM815.448 10L811.309 20.4414C810.57 22.3047 809.533 23.2363 808.197 23.2363C807.822 23.2363 807.509 23.1982 807.257 23.1221V21.8301C807.567 21.9355 807.852 21.9883 808.109 21.9883C808.836 21.9883 809.381 21.5547 809.744 20.6875L810.465 18.9824L806.949 10H808.549L810.983 16.9258C811.013 17.0137 811.074 17.2422 811.168 17.6113H811.221C811.25 17.4707 811.309 17.248 811.396 16.9434L813.954 10H815.448ZM827.27 9.70117C827.27 9.31445 827.208 8.97754 827.085 8.69043C826.968 8.40332 826.804 8.16602 826.593 7.97852C826.388 7.78516 826.145 7.6416 825.863 7.54785C825.582 7.4541 825.277 7.40723 824.949 7.40723C824.668 7.40723 824.393 7.44531 824.123 7.52148C823.854 7.59766 823.59 7.70313 823.332 7.83789C823.08 7.97266 822.834 8.13379 822.594 8.32129C822.359 8.50879 822.14 8.7168 821.935 8.94531V7.39844C822.339 7.00586 822.79 6.70703 823.288 6.50195C823.792 6.29102 824.404 6.18555 825.125 6.18555C825.641 6.18555 826.118 6.26172 826.558 6.41406C826.997 6.56055 827.378 6.77734 827.7 7.06445C828.022 7.35156 828.274 7.70605 828.456 8.12793C828.644 8.5498 828.737 9.0332 828.737 9.57812C828.737 10.0762 828.679 10.5273 828.562 10.9316C828.45 11.3359 828.277 11.7168 828.043 12.0742C827.814 12.4316 827.524 12.7744 827.173 13.1025C826.821 13.4307 826.408 13.7646 825.934 14.1045C825.342 14.5264 824.853 14.8867 824.466 15.1855C824.085 15.4844 823.78 15.7656 823.552 16.0293C823.329 16.2871 823.171 16.5479 823.077 16.8115C822.989 17.0693 822.945 17.3682 822.945 17.708H829.221V19H821.442V18.376C821.442 17.8369 821.501 17.3623 821.618 16.9521C821.735 16.542 821.929 16.1523 822.198 15.7832C822.468 15.4141 822.819 15.0449 823.253 14.6758C823.692 14.3066 824.229 13.8906 824.861 13.4277C825.318 13.0996 825.699 12.7861 826.004 12.4873C826.314 12.1885 826.563 11.8896 826.751 11.5908C826.938 11.292 827.07 10.9902 827.146 10.6855C827.229 10.375 827.27 10.0469 827.27 9.70117ZM839.152 12.6455C839.152 13.7002 839.056 14.6348 838.862 15.4492C838.675 16.2637 838.399 16.9521 838.036 17.5146C837.679 18.0713 837.236 18.4961 836.709 18.7891C836.188 19.0762 835.593 19.2197 834.925 19.2197C834.292 19.2197 833.727 19.082 833.229 18.8066C832.736 18.5254 832.32 18.1182 831.98 17.585C831.641 17.0518 831.383 16.3984 831.207 15.625C831.031 14.8457 830.943 13.9551 830.943 12.9531C830.943 11.8516 831.034 10.8789 831.216 10.0352C831.403 9.19141 831.676 8.48535 832.033 7.91699C832.391 7.34277 832.833 6.91211 833.36 6.625C833.894 6.33203 834.503 6.18555 835.188 6.18555C837.831 6.18555 839.152 8.33887 839.152 12.6455ZM837.676 12.7861C837.676 9.2002 836.823 7.40723 835.118 7.40723C833.319 7.40723 832.42 9.23242 832.42 12.8828C832.42 16.2871 833.302 17.9893 835.065 17.9893C836.806 17.9893 837.676 16.2549 837.676 12.7861ZM846.676 9.70117C846.676 9.31445 846.614 8.97754 846.491 8.69043C846.374 8.40332 846.21 8.16602 845.999 7.97852C845.794 7.78516 845.551 7.6416 845.27 7.54785C844.988 7.4541 844.684 7.40723 844.355 7.40723C844.074 7.40723 843.799 7.44531 843.529 7.52148C843.26 7.59766 842.996 7.70313 842.738 7.83789C842.486 7.97266 842.24 8.13379 842 8.32129C841.766 8.50879 841.546 8.7168 841.341 8.94531V7.39844C841.745 7.00586 842.196 6.70703 842.694 6.50195C843.198 6.29102 843.811 6.18555 844.531 6.18555C845.047 6.18555 845.524 6.26172 845.964 6.41406C846.403 6.56055 846.784 6.77734 847.106 7.06445C847.429 7.35156 847.681 7.70605 847.862 8.12793C848.05 8.5498 848.144 9.0332 848.144 9.57812C848.144 10.0762 848.085 10.5273 847.968 10.9316C847.856 11.3359 847.684 11.7168 847.449 12.0742C847.221 12.4316 846.931 12.7744 846.579 13.1025C846.228 13.4307 845.814 13.7646 845.34 14.1045C844.748 14.5264 844.259 14.8867 843.872 15.1855C843.491 15.4844 843.187 15.7656 842.958 16.0293C842.735 16.2871 842.577 16.5479 842.483 16.8115C842.396 17.0693 842.352 17.3682 842.352 17.708H848.627V19H840.849V18.376C840.849 17.8369 840.907 17.3623 841.024 16.9521C841.142 16.542 841.335 16.1523 841.604 15.7832C841.874 15.4141 842.226 15.0449 842.659 14.6758C843.099 14.3066 843.635 13.8906 844.268 13.4277C844.725 13.0996 845.105 12.7861 845.41 12.4873C845.721 12.1885 845.97 11.8896 846.157 11.5908C846.345 11.292 846.477 10.9902 846.553 10.6855C846.635 10.375 846.676 10.0469 846.676 9.70117ZM858.559 12.6455C858.559 13.7002 858.462 14.6348 858.269 15.4492C858.081 16.2637 857.806 16.9521 857.442 17.5146C857.085 18.0713 856.643 18.4961 856.115 18.7891C855.594 19.0762 854.999 19.2197 854.331 19.2197C853.698 19.2197 853.133 19.082 852.635 18.8066C852.143 18.5254 851.727 18.1182 851.387 17.585C851.047 17.0518 850.789 16.3984 850.613 15.625C850.438 14.8457 850.35 13.9551 850.35 12.9531C850.35 11.8516 850.44 10.8789 850.622 10.0352C850.81 9.19141 851.082 8.48535 851.439 7.91699C851.797 7.34277 852.239 6.91211 852.767 6.625C853.3 6.33203 853.909 6.18555 854.595 6.18555C857.237 6.18555 858.559 8.33887 858.559 12.6455ZM857.082 12.7861C857.082 9.2002 856.229 7.40723 854.524 7.40723C852.726 7.40723 851.826 9.23242 851.826 12.8828C851.826 16.2871 852.708 17.9893 854.472 17.9893C856.212 17.9893 857.082 16.2549 857.082 12.7861Z" fill="black"/>
<path d="M715.708 2H700.292C699.028 2 698 3.028 698 4.292V19.708C698 20.972 699.028 22 700.292 22H715.708C716.972 22 718 20.972 718 19.708V4.292C718 3.028 716.972 2 715.708 2ZM716.5 19.708C716.5 20.145 716.145 20.5 715.708 20.5H700.292C699.855 20.5 699.5 20.145 699.5 19.708V6.418C699.5 5.981 699.854 5.628 700.29 5.626H715.71C716.146 5.626 716.5 5.981 716.5 6.416V19.71V19.708Z" fill="black"/>
<path d="M703.032 10.035C703.742 10.035 704.317 9.45968 704.317 8.75C704.317 8.04031 703.742 7.465 703.032 7.465C702.322 7.465 701.747 8.04031 701.747 8.75C701.747 9.45968 702.322 10.035 703.032 10.035Z" fill="black"/>
<path d="M703.032 14.441C703.742 14.441 704.317 13.8657 704.317 13.156C704.317 12.4463 703.742 11.871 703.032 11.871C702.322 11.871 701.747 12.4463 701.747 13.156C701.747 13.8657 702.322 14.441 703.032 14.441Z" fill="black"/>
<path d="M712.968 10.035C713.678 10.035 714.253 9.45968 714.253 8.75C714.253 8.04031 713.678 7.465 712.968 7.465C712.258 7.465 711.683 8.04031 711.683 8.75C711.683 9.45968 712.258 10.035 712.968 10.035Z" fill="black"/>
<path d="M712.968 14.441C713.678 14.441 714.253 13.8657 714.253 13.156C714.253 12.4463 713.678 11.871 712.968 11.871C712.258 11.871 711.683 12.4463 711.683 13.156C711.683 13.8657 712.258 14.441 712.968 14.441Z" fill="black"/>
<path d="M708 10.035C708.71 10.035 709.285 9.45968 709.285 8.75C709.285 8.04031 708.71 7.465 708 7.465C707.29 7.465 706.715 8.04031 706.715 8.75C706.715 9.45968 707.29 10.035 708 10.035Z" fill="black"/>
<path d="M708 14.441C708.71 14.441 709.285 13.8657 709.285 13.156C709.285 12.4463 708.71 11.871 708 11.871C707.29 11.871 706.715 12.4463 706.715 13.156C706.715 13.8657 707.29 14.441 708 14.441Z" fill="black"/>
<path d="M703.032 18.771C703.742 18.771 704.317 18.1957 704.317 17.486C704.317 16.7763 703.742 16.201 703.032 16.201C702.322 16.201 701.747 16.7763 701.747 17.486C701.747 18.1957 702.322 18.771 703.032 18.771Z" fill="black"/>
<path d="M708 18.771C708.71 18.771 709.285 18.1957 709.285 17.486C709.285 16.7763 708.71 16.201 708 16.201C707.29 16.201 706.715 16.7763 706.715 17.486C706.715 18.1957 707.29 18.771 708 18.771Z" fill="black"/>
<path d="M214.634 18.9121C214.294 19.0996 213.846 19.1934 213.289 19.1934C211.713 19.1934 210.925 18.3145 210.925 16.5566V11.2305H209.378V10H210.925V7.80273L212.366 7.33691V10H214.634V11.2305H212.366V16.3018C212.366 16.9053 212.469 17.3359 212.674 17.5938C212.879 17.8516 213.219 17.9805 213.693 17.9805C214.057 17.9805 214.37 17.8809 214.634 17.6816V18.9121ZM217.06 19.1934C216.79 19.1934 216.559 19.0967 216.365 18.9033C216.178 18.71 216.084 18.4785 216.084 18.209C216.084 17.9395 216.178 17.708 216.365 17.5146C216.559 17.3154 216.79 17.2158 217.06 17.2158C217.335 17.2158 217.569 17.3154 217.763 17.5146C217.956 17.708 218.053 17.9395 218.053 18.209C218.053 18.4785 217.956 18.71 217.763 18.9033C217.569 19.0967 217.335 19.1934 217.06 19.1934ZM233.24 19H231.799V13.832C231.799 12.8359 231.644 12.1152 231.333 11.6699C231.028 11.2246 230.513 11.002 229.786 11.002C229.171 11.002 228.646 11.2832 228.213 11.8457C227.785 12.4082 227.571 13.082 227.571 13.8672V19H226.13V13.6562C226.13 11.8867 225.447 11.002 224.082 11.002C223.449 11.002 222.928 11.2686 222.518 11.8018C222.107 12.3291 221.902 13.0176 221.902 13.8672V19H220.461V10H221.902V11.4238H221.938C222.576 10.334 223.508 9.78906 224.732 9.78906C225.348 9.78906 225.884 9.96191 226.341 10.3076C226.798 10.6475 227.111 11.0957 227.281 11.6523C227.949 10.4102 228.945 9.78906 230.27 9.78906C232.25 9.78906 233.24 11.0107 233.24 13.4541V19ZM243.198 14.8604H236.844C236.867 15.8623 237.137 16.6357 237.652 17.1807C238.168 17.7256 238.877 17.998 239.779 17.998C240.793 17.998 241.725 17.6641 242.574 16.9961V18.3496C241.783 18.9238 240.737 19.2109 239.437 19.2109C238.165 19.2109 237.166 18.8037 236.439 17.9893C235.713 17.1689 235.35 16.0176 235.35 14.5352C235.35 13.1348 235.745 11.9951 236.536 11.1162C237.333 10.2314 238.32 9.78906 239.498 9.78906C240.676 9.78906 241.587 10.1699 242.231 10.9316C242.876 11.6934 243.198 12.751 243.198 14.1045V14.8604ZM241.722 13.6387C241.716 12.8066 241.514 12.1592 241.115 11.6963C240.723 11.2334 240.175 11.002 239.472 11.002C238.792 11.002 238.215 11.2451 237.74 11.7314C237.266 12.2178 236.973 12.8535 236.861 13.6387H241.722ZM251.073 6.39648L245.026 21.0918H243.682L249.711 6.39648H251.073ZM253.877 17.6992H253.842V19H252.4V5.67578H253.842V11.582H253.877C254.586 10.3867 255.623 9.78906 256.988 9.78906C258.143 9.78906 259.045 10.1934 259.695 11.002C260.352 11.8047 260.68 12.8828 260.68 14.2363C260.68 15.7422 260.313 16.9492 259.581 17.8574C258.849 18.7598 257.847 19.2109 256.575 19.2109C255.386 19.2109 254.486 18.707 253.877 17.6992ZM253.842 14.0693V15.3262C253.842 16.0703 254.082 16.7031 254.562 17.2246C255.049 17.7402 255.664 17.998 256.408 17.998C257.281 17.998 257.964 17.6641 258.456 16.9961C258.954 16.3281 259.203 15.3994 259.203 14.21C259.203 13.208 258.972 12.4229 258.509 11.8545C258.046 11.2861 257.419 11.002 256.628 11.002C255.79 11.002 255.116 11.2949 254.606 11.8809C254.097 12.4609 253.842 13.1904 253.842 14.0693ZM266.744 19.2109C265.414 19.2109 264.351 18.792 263.554 17.9541C262.763 17.1104 262.367 15.9941 262.367 14.6055C262.367 13.0938 262.78 11.9131 263.606 11.0635C264.433 10.2139 265.549 9.78906 266.955 9.78906C268.297 9.78906 269.343 10.2021 270.093 11.0283C270.849 11.8545 271.227 13 271.227 14.4648C271.227 15.9004 270.819 17.0518 270.005 17.9189C269.196 18.7803 268.109 19.2109 266.744 19.2109ZM266.85 11.002C265.924 11.002 265.191 11.3184 264.652 11.9512C264.113 12.5781 263.844 13.4453 263.844 14.5527C263.844 15.6191 264.116 16.46 264.661 17.0752C265.206 17.6904 265.936 17.998 266.85 17.998C267.781 17.998 268.496 17.6963 268.994 17.0928C269.498 16.4893 269.75 15.6309 269.75 14.5176C269.75 13.3926 269.498 12.5254 268.994 11.916C268.496 11.3066 267.781 11.002 266.85 11.002ZM275.006 17.6992H274.971V19H273.529V5.67578H274.971V11.582H275.006C275.715 10.3867 276.752 9.78906 278.117 9.78906C279.271 9.78906 280.174 10.1934 280.824 11.002C281.48 11.8047 281.809 12.8828 281.809 14.2363C281.809 15.7422 281.442 16.9492 280.71 17.8574C279.978 18.7598 278.976 19.2109 277.704 19.2109C276.515 19.2109 275.615 18.707 275.006 17.6992ZM274.971 14.0693V15.3262C274.971 16.0703 275.211 16.7031 275.691 17.2246C276.178 17.7402 276.793 17.998 277.537 17.998C278.41 17.998 279.093 17.6641 279.585 16.9961C280.083 16.3281 280.332 15.3994 280.332 14.21C280.332 13.208 280.101 12.4229 279.638 11.8545C279.175 11.2861 278.548 11.002 277.757 11.002C276.919 11.002 276.245 11.2949 275.735 11.8809C275.226 12.4609 274.971 13.1904 274.971 14.0693ZM291.389 19H289.947V17.5762H289.912C289.314 18.666 288.389 19.2109 287.135 19.2109C284.99 19.2109 283.918 17.9336 283.918 15.3789V10H285.351V15.1504C285.351 17.0488 286.077 17.998 287.53 17.998C288.233 17.998 288.811 17.7402 289.262 17.2246C289.719 16.7031 289.947 16.0234 289.947 15.1855V10H291.389V19ZM299 11.459C298.748 11.2656 298.385 11.1689 297.91 11.1689C297.295 11.1689 296.779 11.459 296.363 12.0391C295.953 12.6191 295.748 13.4102 295.748 14.4121V19H294.307V10H295.748V11.8545H295.783C295.988 11.2217 296.302 10.7295 296.724 10.3779C297.146 10.0205 297.617 9.8418 298.139 9.8418C298.514 9.8418 298.801 9.88281 299 9.96484V11.459ZM302.006 18.6221C302.006 20.0986 301.707 21.2354 301.109 22.0322C300.518 22.835 299.668 23.2363 298.561 23.2363C298.15 23.2363 297.752 23.1426 297.365 22.9551V21.6104C297.799 21.874 298.209 22.0059 298.596 22.0059C299.908 22.0059 300.564 20.957 300.564 18.8594V10H302.006V18.6221ZM301.303 7.71484C301.045 7.71484 300.825 7.62695 300.644 7.45117C300.462 7.27539 300.371 7.05273 300.371 6.7832C300.371 6.51367 300.462 6.29102 300.644 6.11523C300.825 5.93359 301.045 5.84277 301.303 5.84277C301.566 5.84277 301.789 5.93359 301.971 6.11523C302.158 6.29102 302.252 6.51367 302.252 6.7832C302.252 7.04102 302.158 7.26074 301.971 7.44238C301.789 7.62402 301.566 7.71484 301.303 7.71484ZM308.686 19.2109C307.355 19.2109 306.292 18.792 305.495 17.9541C304.704 17.1104 304.309 15.9941 304.309 14.6055C304.309 13.0938 304.722 11.9131 305.548 11.0635C306.374 10.2139 307.49 9.78906 308.896 9.78906C310.238 9.78906 311.284 10.2021 312.034 11.0283C312.79 11.8545 313.168 13 313.168 14.4648C313.168 15.9004 312.761 17.0518 311.946 17.9189C311.138 18.7803 310.051 19.2109 308.686 19.2109ZM308.791 11.002C307.865 11.002 307.133 11.3184 306.594 11.9512C306.055 12.5781 305.785 13.4453 305.785 14.5527C305.785 15.6191 306.058 16.46 306.603 17.0752C307.147 17.6904 307.877 17.998 308.791 17.998C309.723 17.998 310.438 17.6963 310.936 17.0928C311.439 16.4893 311.691 15.6309 311.691 14.5176C311.691 13.3926 311.439 12.5254 310.936 11.916C310.438 11.3066 309.723 11.002 308.791 11.002ZM322.941 19H321.5V13.8672C321.5 11.957 320.803 11.002 319.408 11.002C318.688 11.002 318.09 11.2744 317.615 11.8193C317.146 12.3584 316.912 13.041 316.912 13.8672V19H315.471V10H316.912V11.4941H316.947C317.627 10.3574 318.611 9.78906 319.9 9.78906C320.885 9.78906 321.638 10.1084 322.159 10.7471C322.681 11.3799 322.941 12.2969 322.941 13.498V19ZM331.678 21.6104H324.207V20.5645H331.678V21.6104ZM345.916 19H344.475V13.832C344.475 12.8359 344.319 12.1152 344.009 11.6699C343.704 11.2246 343.188 11.002 342.462 11.002C341.847 11.002 341.322 11.2832 340.889 11.8457C340.461 12.4082 340.247 13.082 340.247 13.8672V19H338.806V13.6562C338.806 11.8867 338.123 11.002 336.758 11.002C336.125 11.002 335.604 11.2686 335.193 11.8018C334.783 12.3291 334.578 13.0176 334.578 13.8672V19H333.137V10H334.578V11.4238H334.613C335.252 10.334 336.184 9.78906 337.408 9.78906C338.023 9.78906 338.56 9.96191 339.017 10.3076C339.474 10.6475 339.787 11.0957 339.957 11.6523C340.625 10.4102 341.621 9.78906 342.945 9.78906C344.926 9.78906 345.916 11.0107 345.916 13.4541V19ZM355.083 19H353.642V17.5938H353.606C352.979 18.6719 352.057 19.2109 350.838 19.2109C349.941 19.2109 349.238 18.9736 348.729 18.499C348.225 18.0244 347.973 17.3945 347.973 16.6094C347.973 14.9277 348.963 13.9492 350.943 13.6738L353.642 13.2959C353.642 11.7666 353.023 11.002 351.787 11.002C350.703 11.002 349.725 11.3711 348.852 12.1094V10.6328C349.736 10.0703 350.756 9.78906 351.91 9.78906C354.025 9.78906 355.083 10.9082 355.083 13.1465V19ZM353.642 14.4473L351.471 14.7461C350.803 14.8398 350.299 15.0068 349.959 15.2471C349.619 15.4814 349.449 15.9004 349.449 16.5039C349.449 16.9434 349.604 17.3037 349.915 17.585C350.231 17.8604 350.65 17.998 351.172 17.998C351.887 17.998 352.476 17.749 352.938 17.251C353.407 16.7471 353.642 16.1113 353.642 15.3438V14.4473ZM364.874 10L361.288 19H359.873L356.463 10H358.045L360.33 16.5391C360.5 17.0195 360.605 17.4385 360.646 17.7959H360.682C360.74 17.3447 360.834 16.9375 360.963 16.5742L363.354 10H364.874ZM367.871 19H366.43V5.67578H367.871V19ZM374.551 19.2109C373.221 19.2109 372.157 18.792 371.36 17.9541C370.569 17.1104 370.174 15.9941 370.174 14.6055C370.174 13.0938 370.587 11.9131 371.413 11.0635C372.239 10.2139 373.355 9.78906 374.762 9.78906C376.104 9.78906 377.149 10.2021 377.899 11.0283C378.655 11.8545 379.033 13 379.033 14.4648C379.033 15.9004 378.626 17.0518 377.812 17.9189C377.003 18.7803 375.916 19.2109 374.551 19.2109ZM374.656 11.002C373.73 11.002 372.998 11.3184 372.459 11.9512C371.92 12.5781 371.65 13.4453 371.65 14.5527C371.65 15.6191 371.923 16.46 372.468 17.0752C373.013 17.6904 373.742 17.998 374.656 17.998C375.588 17.998 376.303 17.6963 376.801 17.0928C377.305 16.4893 377.557 15.6309 377.557 14.5176C377.557 13.3926 377.305 12.5254 376.801 11.916C376.303 11.3066 375.588 11.002 374.656 11.002ZM388.807 19H387.365V13.8672C387.365 11.957 386.668 11.002 385.273 11.002C384.553 11.002 383.955 11.2744 383.48 11.8193C383.012 12.3584 382.777 13.041 382.777 13.8672V19H381.336V10H382.777V11.4941H382.812C383.492 10.3574 384.477 9.78906 385.766 9.78906C386.75 9.78906 387.503 10.1084 388.024 10.7471C388.546 11.3799 388.807 12.2969 388.807 13.498V19ZM395.293 19.2109C393.963 19.2109 392.899 18.792 392.103 17.9541C391.312 17.1104 390.916 15.9941 390.916 14.6055C390.916 13.0938 391.329 11.9131 392.155 11.0635C392.981 10.2139 394.098 9.78906 395.504 9.78906C396.846 9.78906 397.892 10.2021 398.642 11.0283C399.397 11.8545 399.775 13 399.775 14.4648C399.775 15.9004 399.368 17.0518 398.554 17.9189C397.745 18.7803 396.658 19.2109 395.293 19.2109ZM395.398 11.002C394.473 11.002 393.74 11.3184 393.201 11.9512C392.662 12.5781 392.393 13.4453 392.393 14.5527C392.393 15.6191 392.665 16.46 393.21 17.0752C393.755 17.6904 394.484 17.998 395.398 17.998C396.33 17.998 397.045 17.6963 397.543 17.0928C398.047 16.4893 398.299 15.6309 398.299 14.5176C398.299 13.3926 398.047 12.5254 397.543 11.916C397.045 11.3066 396.33 11.002 395.398 11.002ZM409.153 10L405.567 19H404.152L400.742 10H402.324L404.609 16.5391C404.779 17.0195 404.885 17.4385 404.926 17.7959H404.961C405.02 17.3447 405.113 16.9375 405.242 16.5742L407.633 10H409.153Z" fill="#1DA1F2"/>
<g opacity="0.6">
<path d="M191.96 14.945C191.893 14.945 191.824 14.935 191.757 14.918C190.627 14.6 189.66 13.932 188.962 12.986C188.13 11.861 187.786 10.478 187.994 9.09299C188.202 7.70799 188.936 6.48799 190.062 5.65499L193.592 3.04699C195.914 1.33099 199.202 1.82299 200.922 4.14699C201.752 5.27399 202.097 6.65699 201.889 8.04199C201.681 9.42699 200.946 10.647 199.819 11.48L198.339 12.574C198.006 12.82 197.535 12.749 197.289 12.416C197.043 12.082 197.113 11.612 197.447 11.366L198.927 10.271C199.73 9.67899 200.254 8.80799 200.403 7.82099C200.551 6.83299 200.305 5.84599 199.713 5.04299C198.488 3.38699 196.141 3.03299 194.483 4.25899L190.953 6.86699C190.151 7.45999 189.627 8.33099 189.478 9.31699C189.328 10.307 189.575 11.292 190.168 12.095C190.666 12.77 191.355 13.245 192.16 13.472C192.56 13.586 192.793 14 192.68 14.4C192.588 14.73 192.286 14.947 191.958 14.947L191.96 14.945Z" fill="black"/>
<path d="M187.27 22.054C185.66 22.054 184.073 21.319 183.045 19.929C182.213 18.802 181.869 17.419 182.077 16.035C182.285 14.651 183.02 13.43 184.147 12.597L185.625 11.503C185.959 11.258 186.43 11.328 186.675 11.661C186.92 11.994 186.852 12.465 186.518 12.711L185.038 13.806C184.235 14.399 183.712 15.27 183.563 16.256C183.415 17.246 183.66 18.231 184.253 19.034C185.478 20.691 187.823 21.044 189.483 19.819L193.011 17.211C194.669 15.986 195.021 13.641 193.796 11.981C193.298 11.307 192.609 10.831 191.804 10.605C191.404 10.492 191.171 10.078 191.284 9.67798C191.396 9.27798 191.812 9.04798 192.21 9.15598C193.34 9.47398 194.306 10.142 195.004 11.088C196.721 13.412 196.228 16.7 193.904 18.418L190.374 21.026C189.441 21.719 188.351 22.052 187.269 22.052L187.27 22.054Z" fill="black"/>
</g>
</svg>
